<svg version="1.1" id="Layer_1" xmlns="http://www.w3.org/2000/svg" xmlns:xlink="http://www.w3.org/1999/xlink" x="0px" y="0px"
	 viewBox="0 0 901.3 962.9" style="enable-background:new 0 0 901.3 962.9;" xml:space="preserve">
<style type="text/css">
	.A{fill:#FFD400;}
	.B{fill:#FFE96B;}
	.C{fill:#FDB913;}
	.D{fill:#F9DDAA;}
	.E{fill:#CE7B2D;}
	.F{fill:#FFFFFF;}
	.G{fill:#F58220;}
</style>
<g id="ハテナブロック">
	<path class="A" d="M889.1,191.6L474.4,5c-14.9-6.7-29.3-6.7-44.1,0L15.5,191.6C3.6,197,0,215,0,226.5v509.2
		c0,18.1,7.1,30.3,21.7,36.9L429,957.9c14.6,6.6,28.8,6.6,43.4,0l407.3-185.3c14.6-6.6,21.7-18.8,21.7-37V226.5
		C901.3,216.5,901.5,197.2,889.1,191.6z"/>
	<path class="B" d="M472.3,394.7l407.3-185.4c21-8.9,9.4-17.7,9.4-17.7L474.4,5c-14.9-6.7-29.3-6.7-44.1,0L15.5,191.6
		c0,0-14.4,7.7,6.2,17.7L429,394.6C441.5,400.2,456.9,401.3,472.3,394.7z"/>
	<path class="C" d="M472.3,957.9l407.3-185.3c14.6-6.6,21.7-18.8,21.7-37V226.5c0-10,0.2-29.3-12.2-34.9c0,0,11.6,8.8-9.4,17.7
		L472.3,394.7c-14.8,7.2-20.9,14.3-20.9,34.2v509.9C451.4,954.8,459.1,963.2,472.3,957.9z"/>
	<path class="D" d="M631.9,754c-0.4,0.2-0.8,0.8-0.8,1.5v71.2c0,0.6,0.3,0.8,0.8,0.6l88.3-40.1c0.4-0.2,0.8-0.8,0.8-1.4v-71.3
		c0-0.6-0.4-0.9-0.8-0.7L631.9,754z"/>
	<path class="D" d="M830.4,356.7l-40.5-34c-0.2-0.1-0.4-0.1-0.6,0L562.8,425.7c-0.2,0.1-0.5,0.3-0.6,0.5l-40.6,70.9
		c-0.2,0.2-0.2,0.5-0.2,0.7v106.8c0,0.5,0.3,0.8,0.8,0.6l88.3-40.2c0.4-0.2,0.8-0.9,0.8-1.4v-74.6l9.8-16.7l109.9-50l9.8,7.7v73.5
		l-9.8,16.7l-59.6,27c-0.2,0.2-0.4,0.4-0.6,0.6l-39.5,68.3c-0.2,0.2-0.2,0.5-0.2,0.8v97.9c0,0.7,0.3,1,0.8,0.8l88.3-40.2
		c0.4-0.2,0.8-0.8,0.8-1.5v-63.8l9.8-16.6l59.4-27.1c0.2-0.1,0.5-0.3,0.7-0.5l39.6-68.3c0.2-0.3,0.2-0.5,0.2-0.8V357.2
		C830.6,357,830.6,356.8,830.4,356.7z"/>
	<path class="E" d="M492.5,872.5c-11.1,5.1-20,20.3-20,34.1c0,13.7,8.9,20.9,20,15.9c11-5,19.9-20.3,19.9-34
		C512.4,874.7,503.5,867.5,492.5,872.5z"/>
	<path class="E" d="M492.5,411.6c-11.1,5-20,20.3-20,34.1c0,13.8,8.9,21,20,15.9c11-5.1,19.9-20.3,19.9-34.1
		C512.4,413.7,503.5,406.6,492.5,411.6z"/>
	<path class="E" d="M859.6,705.5c-11,5-20.1,20.3-20.1,34.2c0,13.7,9.1,20.8,20.1,15.8c11-5.1,20-20.3,20-34.1
		C879.6,707.6,870.6,700.5,859.6,705.5z"/>
	<path class="E" d="M859.6,294.6c11-5,20-20.3,20-34.1c0-13.8-8.9-21-20-15.9c-11,5-20.1,20.3-20.1,34.1
		C839.5,292.5,848.6,299.6,859.6,294.6z"/>
	<path class="F" d="M181.2,713.8c-0.4-0.2-0.8,0.1-0.8,0.7v71.3c0,0.5,0.3,1,0.8,1.2l88.3,40.2c0.5,0.2,0.9-0.1,0.9-0.5v-71.3
		c0-0.6-0.4-1.3-0.9-1.5L181.2,713.8z"/>
	<path class="F" d="M379.8,497.2l-40.5-70.9c-0.2-0.3-0.4-0.5-0.6-0.5L112.1,322.7c-0.2-0.1-0.5-0.1-0.6-0.1l-40.6,33.9
		c-0.1,0.1-0.2,0.3-0.2,0.6V464c0,0.5,0.3,1.2,0.9,1.5l88.3,40.1c0.5,0.2,0.8-0.1,0.8-0.7v-74.6l9.8-7.7l110,50l9.8,16.6v73.5
		l-9.8,7.7l-59.6-27.1c-0.3-0.1-0.4-0.1-0.6,0.1l-39.6,32.3c-0.1,0.2-0.2,0.3-0.2,0.7v97.9c0,0.7,0.3,1.2,0.8,1.4l88.3,40.2
		c0.5,0.2,0.9-0.1,0.9-0.8v-63.7l9.7-7.7l59.5,27c0.2,0.1,0.4,0.1,0.7,0l39.6-32.3c0.1-0.2,0.2-0.3,0.2-0.6V497.9
		C380,497.7,379.9,497.3,379.8,497.2z"/>
	<path class="G" d="M41.8,705.5c-11-5.1-20,2.1-20,15.9c0,13.8,9,29,20,34.1c11,5,20-2.1,20-15.9
		C61.8,725.8,52.8,710.6,41.8,705.5z"/>
	<path class="G" d="M41.8,244.6c-11-5-20,2.1-20,15.9c0,13.8,9,29.1,20,34.1c11,5,20-2.2,20-15.9
		C61.8,264.9,52.8,249.6,41.8,244.6z"/>
	<path class="G" d="M408.9,872.5c-11-5-20.1,2.1-20.1,15.9c0,13.7,9.1,29.1,20.1,34.1c11.1,5.1,20-2.1,20-15.9
		C428.9,892.8,420,877.6,408.9,872.5z"/>
	<path class="G" d="M408.9,461.7c11.1,5,20-2.1,20-15.9c0-13.8-8.9-29.1-20-34.1c-11-5.1-20.1,2-20.1,15.9
		C388.8,441.3,397.9,456.6,408.9,461.7z"/>
</g>
</svg>